<?xml version="1.0" encoding="utf-8"?>
<!-- Generator: Adobe Illustrator 25.2.1, SVG Export Plug-In . SVG Version: 6.00 Build 0)  -->
<svg version="1.1" id="Layer_1" xmlns="http://www.w3.org/2000/svg" xmlns:xlink="http://www.w3.org/1999/xlink" x="0px" y="0px"
	 viewBox="0 0 595.28 841.89" style="enable-background:new 0 0 595.28 841.89;" xml:space="preserve">
<style type="text/css">
	.st0{stroke:#000000;stroke-width:2;stroke-miterlimit:10;}
</style>
<g>
	<path class="st0" d="M306.64,564.94c-6,0-12,0-18,0c-0.91-0.39-1.79-0.91-2.74-1.16c-15.2-4.08-26.25-13.25-33.2-27.29
		c-1.47-2.97-3.32-2.38-5.75-1.71c-19.41,5.32-36.9,2.31-51.47-12.4c-14.35-14.48-16.82-31.81-11.61-50.74
		c0.89-3.24,0.29-4.63-2.68-6.2c-12.75-6.73-21.84-16.65-25.71-30.87c-0.43-1.59-1.21-3.08-1.83-4.61c0-6,0-12,0-18
		c0.44-1.07,1.01-2.11,1.32-3.22c4.11-15.01,13.29-25.85,27.15-32.72c2.96-1.47,2.39-3.32,1.72-5.75
		c-5.34-19.42-2.35-36.89,12.4-51.48c14.5-14.34,31.82-16.81,50.75-11.59c3.25,0.9,4.63,0.26,6.19-2.7
		c6.73-12.75,16.66-21.84,30.88-25.71c1.59-0.43,3.08-1.21,4.61-1.83c6,0,12,0,18,0c1.06,0.48,2.07,1.14,3.18,1.42
		c15.23,3.84,25.85,13.29,32.79,27.1c1.5,2.99,3.42,2.43,5.79,1.62c8.41-2.91,17.08-3.19,25.66-1.46
		c29.37,5.91,46.48,34.79,37.63,63.53c-1.21,3.91-0.76,5.76,3.15,7.73c9.61,4.85,17,12.29,21.72,22.05
		c2.02,4.18,3.41,8.67,5.08,13.02c0,6,0,12,0,18c-0.71,1.86-1.54,3.68-2.11,5.57c-4.09,13.49-12.74,23.22-25.01,29.69
		c-3.37,1.78-4.11,3.3-2.94,6.92c3.61,11.12,3.19,22.35-0.78,33.29c-8.78,24.21-36.02,37.48-61.06,29.62
		c-4.42-1.39-6.22-0.51-8.38,3.61c-6.1,11.63-15.53,19.77-28.16,23.94C310.99,563.32,308.82,564.16,306.64,564.94z"/>
</g>
</svg>
